<svg xmlns="http://www.w3.org/2000/svg" xmlns:v="https://svgstorm.com"
viewBox = "0 0 493 386"
width="493"
height="386">
<g fill="None" fill-opacity="0.0" stroke="#FEFEFE" stroke-opacity="1.00" stroke-width="0.3"><path d="
M 0.00 386.00 
L 493.00 386.00
L 493.00 0.00
L 0.00 0.00
L 0.00 386.00
M 275.00 74.00 
C 285.20 77.10 284.44 90.89 288.93 100.07 C 293.41 109.25 306.77 108.31 317.02 112.98 C 327.28 117.64 332.56 119.52 343.08 126.92 C 353.61 134.31 348.94 147.49 334.99 144.01 C 321.05 140.53 311.96 140.00 298.00 140.00
C 285.67 140.00 273.33 140.00 261.00 140.00
C 248.29 140.00 235.35 143.19 223.00 144.00 C 210.65 144.81 200.30 149.89 188.33 151.33 C 176.35 152.77 168.57 161.48 155.99 160.99 C 143.41 160.51 154.50 144.40 162.75 139.75 C 171.00 135.11 177.97 127.26 187.70 122.70 C 197.42 118.13 197.93 105.25 201.92 94.92 C 205.92 84.60 218.00 82.66 228.67 79.67 C 239.34 76.68 253.09 74.00 265.00 74.00
C 268.41 73.67 271.48 72.93 275.00 74.00
M 302.00 145.00 
C 304.99 146.29 298.44 155.53 297.08 158.08 C 295.73 160.63 291.99 168.18 290.08 171.08 C 288.18 173.98 285.01 181.45 282.75 183.75 C 280.48 186.05 277.94 196.24 274.30 194.64 C 270.67 193.04 277.31 184.63 278.92 181.92 C 280.52 179.21 284.18 171.99 285.92 168.92 C 287.66 165.86 291.68 158.86 293.30 156.30 C 294.93 153.74 298.44 143.47 302.00 145.00
M 284.00 149.00 
C 282.97 152.26 285.44 154.25 286.00 157.00
C 283.22 152.56 272.15 161.46 271.08 155.92 C 270.02 150.37 281.00 147.36 284.00 149.00
M 250.00 149.00 
C 250.05 152.63 246.42 154.59 243.00 154.00
C 242.99 150.22 246.33 148.04 250.00 149.00
M 271.00 150.00 
C 271.46 154.59 265.64 156.30 264.00 160.00
C 266.52 160.56 270.30 158.81 272.00 161.00
C 270.32 163.05 256.49 164.65 259.79 159.77 C 263.08 154.89 267.51 153.26 259.00 152.00
C 262.81 150.67 266.88 150.21 271.00 150.00
M 229.00 169.00 
C 235.97 167.54 238.72 155.78 229.00 157.00
C 228.68 170.20 219.51 185.08 229.75 196.25 C 240.00 207.41 240.49 218.51 251.00 229.00
C 253.39 227.08 255.45 224.10 256.00 221.00
C 246.46 220.97 241.15 209.56 245.31 201.31 C 249.46 193.05 259.53 190.32 267.69 195.31 C 275.86 200.29 269.67 212.91 265.08 217.08 C 260.50 221.25 256.21 236.89 249.33 233.67 C 242.45 230.45 241.05 219.22 236.08 213.92 C 231.10 208.63 227.22 199.91 223.08 193.92 C 218.94 187.93 213.95 179.28 211.08 172.92 C 208.21 166.57 197.61 155.72 205.00 153.00
C 209.59 161.64 213.58 171.56 220.00 179.00
C 222.00 174.03 222.47 169.43 224.32 164.32 C 226.18 159.21 229.41 156.03 223.00 154.00
C 228.19 151.14 239.03 149.99 240.92 157.08 C 242.82 164.16 235.13 171.13 229.00 169.00
M 259.00 155.00 
C 259.46 159.59 253.63 161.30 252.00 165.00
C 255.83 165.63 260.99 163.72 264.00 166.00
C 258.50 167.58 252.67 167.97 247.00 169.00
C 246.61 163.40 258.02 158.05 248.00 157.00
C 251.49 155.72 255.16 155.01 259.00 155.00
M 243.00 167.00 
C 240.65 164.31 243.19 160.03 244.00 157.00
C 249.38 157.41 245.83 165.31 243.00 167.00
M 278.00 169.00 
C 268.10 170.40 266.85 180.10 267.00 189.00
C 261.37 185.09 269.43 172.94 261.00 172.00
C 265.12 171.47 268.46 167.65 270.00 164.00
C 271.85 167.57 274.53 167.86 278.00 169.00
M 242.00 171.00 
C 243.17 174.38 239.10 178.37 242.00 181.00
C 246.60 179.49 244.39 171.95 249.00 171.00
C 250.53 173.49 248.39 175.63 250.00 178.00
C 254.28 175.19 254.79 177.00 256.00 181.00
C 258.07 179.35 258.39 174.80 262.00 175.00
C 261.44 177.52 263.19 181.30 261.00 183.00
C 257.16 181.53 251.01 188.98 250.00 181.00
C 246.96 184.03 247.65 188.40 246.00 192.00
C 244.12 189.71 243.07 183.78 239.31 187.31 C 235.54 190.83 239.72 194.70 235.00 197.00
C 231.53 194.07 234.46 188.92 231.00 186.00
C 237.96 183.23 234.13 171.89 242.00 171.00
M 270.00 226.00 
C 265.94 220.34 273.57 219.13 270.00 226.00
M 278.00 226.00 
C 274.85 225.20 271.76 226.36 273.00 221.00
C 275.19 225.50 278.50 219.57 278.00 226.00
M 142.00 274.00 
C 140.67 274.67 138.42 290.86 133.00 283.00
C 130.66 279.61 134.22 272.16 133.00 268.00 C 131.78 263.84 133.91 257.37 133.00 253.00
C 141.64 253.41 153.05 250.57 156.97 260.03 C 160.89 269.48 151.07 276.07 142.00 274.00
M 169.00 263.00 
C 169.00 270.00 169.00 277.00 169.00 284.00
C 163.50 285.67 162.04 281.75 163.00 277.00
C 162.84 269.00 163.12 261.00 163.00 253.00
C 170.44 250.61 169.12 258.12 169.00 263.00
M 184.00 259.00 
C 181.91 258.96 169.10 257.69 176.00 253.00
C 181.47 249.28 193.90 255.79 200.00 253.00
C 200.19 263.56 188.49 269.24 184.00 278.00
C 189.67 278.00 195.33 278.00 201.00 278.00
C 201.66 289.86 182.97 281.50 175.00 284.00
C 175.01 273.96 185.58 267.49 191.00 260.00
C 189.55 258.04 186.20 259.44 184.00 259.00
M 218.00 259.00 
C 214.65 258.19 209.49 260.49 207.00 258.00
C 205.71 256.71 205.98 254.92 206.00 253.00
C 214.33 253.00 222.67 253.00 231.00 253.00
C 230.47 263.27 218.50 268.88 215.00 278.00
C 220.33 278.00 225.67 278.00 231.00 278.00
C 231.89 289.73 213.71 281.59 206.00 284.00
C 204.78 273.17 217.28 268.06 221.00 259.00
C 220.00 259.00 219.00 259.00 218.00 259.00
M 255.00 253.00 
C 257.52 263.78 264.05 273.30 267.00 284.00
C 262.20 285.17 258.28 283.01 258.00 278.00
C 254.44 279.59 247.44 275.73 244.33 278.33 C 241.22 280.93 241.41 286.62 235.00 284.00
C 237.66 273.27 243.85 263.63 247.00 253.00
C 249.67 253.00 252.33 253.00 255.00 253.00
M 289.00 253.00 
C 289.00 257.00 289.00 261.00 289.00 265.00
C 293.33 265.00 297.67 265.00 302.00 265.00
C 302.00 261.00 302.00 257.00 302.00 253.00
C 311.48 250.40 309.16 262.08 309.00 268.00 C 308.84 273.92 311.99 286.65 302.00 284.00
C 302.00 279.67 302.00 275.33 302.00 271.00
C 297.67 271.00 293.33 271.00 289.00 271.00
C 288.94 276.59 291.09 286.60 282.00 284.00
C 281.99 277.85 282.02 271.08 282.00 265.00 C 281.98 258.92 280.02 250.43 289.00 253.00
M 316.00 272.00 
C 315.38 269.00 312.70 255.21 316.00 253.00
C 317.38 252.08 320.47 253.70 322.00 253.00
C 323.58 260.29 317.43 277.64 329.01 277.99 C 340.59 278.35 334.52 260.09 336.00 253.00
C 346.76 250.50 342.51 263.84 343.00 271.00 C 343.49 278.16 336.98 283.98 330.00 284.00 C 323.01 284.02 315.22 280.42 316.00 272.00
M 373.00 253.00 
C 375.08 260.01 367.56 259.31 363.00 259.00
C 363.00 267.33 363.00 275.67 363.00 284.00
C 351.27 284.89 359.41 266.71 357.00 259.00
C 353.67 259.00 350.33 259.00 347.00 259.00
C 346.34 247.14 365.03 255.50 373.00 253.00
M 165.00 307.00 
C 162.29 321.54 159.46 300.52 161.00 295.00
C 174.12 288.75 181.03 309.92 165.00 307.00
M 189.00 306.00 
C 189.05 308.68 192.25 310.14 192.00 313.00
C 186.37 314.30 187.62 305.12 182.00 307.00
C 179.29 321.54 176.46 300.52 178.00 295.00
C 185.78 291.45 199.69 300.40 189.00 306.00
M 200.00 310.00 
C 200.00 310.50 200.24 311.67 200.00 312.00
C 199.05 313.29 197.57 312.96 196.00 313.00
C 196.00 307.00 196.00 301.00 196.00 295.00
C 203.50 294.24 198.59 305.34 200.00 310.00
M 216.00 295.00 
C 226.37 297.96 221.49 316.20 210.33 312.67 C 199.17 309.14 203.58 291.46 216.00 295.00
M 236.00 306.00 
C 236.31 308.73 238.84 310.59 240.00 313.00
C 236.16 314.03 233.25 310.39 233.00 307.00
C 228.56 305.54 228.72 309.93 229.00 313.00
C 221.22 312.23 226.59 300.47 225.00 295.00
C 232.88 291.21 246.66 300.42 236.00 306.00
M 247.00 295.00 
C 247.00 301.00 247.00 307.00 247.00 313.00
C 240.67 312.95 240.57 294.24 247.00 295.00
M 265.00 297.00 
C 256.14 296.51 259.60 306.61 259.00 313.00
C 251.69 311.76 260.92 295.84 250.00 297.00
C 251.76 293.78 263.24 293.67 265.00 297.00
M 274.00 302.00 
C 277.26 300.36 277.03 294.00 282.00 295.00
C 280.19 301.12 273.90 305.57 276.00 313.00
C 269.64 311.01 271.76 299.93 266.00 295.00
C 271.03 293.59 271.54 299.30 274.00 302.00
M 296.00 307.00 
C 296.35 310.15 296.46 314.30 292.00 313.00
C 292.00 307.00 292.00 301.00 292.00 295.00
C 305.34 288.73 312.43 310.34 296.00 307.00
M 321.00 306.00 
C 319.86 309.20 324.33 310.08 324.00 313.00
C 318.30 311.54 313.09 301.74 312.00 313.00
C 307.57 309.88 311.17 300.54 310.00 295.00
C 317.27 291.94 330.11 299.29 321.00 306.00
M 340.00 295.00 
C 349.89 298.25 343.68 317.45 332.78 312.22 C 321.87 306.99 328.31 291.15 340.00 295.00
M 151.00 302.00 
C 149.83 306.87 134.03 306.89 132.00 302.00
C 138.33 302.00 144.67 302.00 151.00 302.00
M 373.00 303.00 
C 368.15 307.41 359.39 303.85 353.00 305.00
C 354.94 299.14 367.47 302.36 373.00 303.00 Z"/>
</g>
<g fill="None" fill-opacity="0.0" stroke="#7A7A7A" stroke-opacity="1.00" stroke-width="0.3"><path d="
M 265.00 74.00 
C 268.18 74.00 271.87 73.47 275.00 74.00
C 271.48 72.93 268.41 73.67 265.00 74.00 Z"/>
</g>
<g fill="None" fill-opacity="0.0" stroke="#262626" stroke-opacity="1.00" stroke-width="0.3"><path d="
M 261.00 140.00 
C 272.63 138.87 286.44 138.88 298.00 140.00
C 311.96 140.00 321.05 140.53 334.99 144.01 C 348.94 147.49 353.61 134.31 343.08 126.92 C 332.56 119.52 327.28 117.64 317.02 112.98 C 306.77 108.31 293.41 109.25 288.93 100.07 C 284.44 90.89 285.20 77.10 275.00 74.00
C 271.87 73.47 268.18 74.00 265.00 74.00
C 253.09 74.00 239.34 76.68 228.67 79.67 C 218.00 82.66 205.92 84.60 201.92 94.92 C 197.93 105.25 197.42 118.13 187.70 122.70 C 177.97 127.26 171.00 135.11 162.75 139.75 C 154.50 144.40 143.41 160.51 155.99 160.99 C 168.57 161.48 176.35 152.77 188.33 151.33 C 200.30 149.89 210.65 144.81 223.00 144.00 C 235.35 143.19 248.29 140.00 261.00 140.00
M 344.00 140.00 
C 344.20 140.40 344.00 141.00 344.00 141.00
C 341.29 146.02 331.88 139.67 326.78 140.22 C 321.68 140.77 313.60 136.40 307.78 137.22 C 301.95 138.04 293.20 135.50 288.00 135.00
C 241.04 135.00 196.91 142.18 154.00 157.00
C 159.25 146.41 169.17 141.16 178.75 133.75 C 188.32 126.33 202.06 123.98 201.98 108.98 C 201.89 93.97 214.14 87.92 227.02 85.02 C 239.91 82.13 253.87 77.68 268.00 78.00 C 282.13 78.32 281.90 98.35 286.00 109.00
C 296.49 111.86 310.87 114.59 320.23 119.77 C 329.59 124.95 345.80 128.19 344.00 140.00 Z"/>
</g>
<g fill="None" fill-opacity="0.0" stroke="#F4E5E5" stroke-opacity="1.00" stroke-width="0.3"><path d="
M 288.00 135.00 
C 289.67 135.00 291.33 135.00 293.00 135.00
C 293.15 134.95 293.00 134.00 293.00 134.00
C 262.03 131.63 230.37 132.84 201.00 140.00
C 193.39 141.86 185.51 143.72 178.00 146.00
C 172.90 147.55 167.47 150.59 162.00 152.00
C 169.38 143.37 175.87 136.35 186.75 130.75 C 197.62 125.14 205.92 118.45 206.32 104.32 C 206.72 90.19 224.59 88.62 235.00 86.00
C 242.66 84.33 249.80 83.00 258.00 83.00
C 262.21 82.59 267.77 80.91 272.00 83.00
C 278.27 86.10 279.31 100.47 281.00 107.00
C 282.87 114.20 289.86 113.22 296.00 116.00
C 310.01 119.21 337.12 125.83 344.00 140.00
C 345.80 128.19 329.59 124.95 320.23 119.77 C 310.87 114.59 296.49 111.86 286.00 109.00
C 281.90 98.35 282.13 78.32 268.00 78.00 C 253.87 77.68 239.91 82.13 227.02 85.02 C 214.14 87.92 201.89 93.97 201.98 108.98 C 202.06 123.98 188.32 126.33 178.75 133.75 C 169.17 141.16 159.25 146.41 154.00 157.00
C 196.91 142.18 241.04 135.00 288.00 135.00 Z"/>
</g>
<g fill="None" fill-opacity="0.0" stroke="#B16771" stroke-opacity="1.00" stroke-width="0.3"><path d="
M 258.00 83.00 
C 262.00 83.00 268.22 81.79 272.00 83.00
C 267.77 80.91 262.21 82.59 258.00 83.00 Z"/>
</g>
<g fill="None" fill-opacity="0.0" stroke="#CF3D49" stroke-opacity="1.00" stroke-width="0.3"><path d="
M 235.00 86.00 
C 226.97 89.35 218.09 92.58 210.00 97.00
C 210.50 104.75 205.75 112.46 204.22 120.22 C 202.69 127.98 192.01 127.41 187.30 132.30 C 182.60 137.20 175.53 138.86 171.00 145.00
C 173.31 146.33 175.30 145.17 178.00 146.00
C 185.51 143.72 193.39 141.86 201.00 140.00
C 243.05 122.69 295.80 134.15 339.00 137.00
C 318.84 120.28 291.32 118.35 267.00 113.00
C 264.77 112.73 261.40 113.95 260.00 112.00
C 266.18 109.78 273.41 111.58 280.00 111.00
C 281.09 109.86 281.05 108.73 281.00 107.00
C 279.31 100.47 278.27 86.10 272.00 83.00
C 268.22 81.79 262.00 83.00 258.00 83.00
C 249.80 83.00 242.66 84.33 235.00 86.00 Z"/>
</g>
<g fill="None" fill-opacity="0.0" stroke="#B04F59" stroke-opacity="1.00" stroke-width="0.3"><path d="
M 178.00 146.00 
C 175.30 145.17 173.31 146.33 171.00 145.00
C 175.53 138.86 182.60 137.20 187.30 132.30 C 192.01 127.41 202.69 127.98 204.22 120.22 C 205.75 112.46 210.50 104.75 210.00 97.00
C 218.09 92.58 226.97 89.35 235.00 86.00
C 224.59 88.62 206.72 90.19 206.32 104.32 C 205.92 118.45 197.62 125.14 186.75 130.75 C 175.87 136.35 169.38 143.37 162.00 152.00
C 167.47 150.59 172.90 147.55 178.00 146.00 Z"/>
</g>
<g fill="None" fill-opacity="0.0" stroke="#FBCED2" stroke-opacity="1.00" stroke-width="0.3"><path d="
M 280.00 111.00 
C 278.42 112.65 269.08 112.84 267.00 113.00
C 276.86 113.30 286.58 113.84 296.00 116.00
C 289.86 113.22 282.87 114.20 281.00 107.00
C 281.05 108.73 281.09 109.86 280.00 111.00 Z"/>
</g>
<g fill="None" fill-opacity="0.0" stroke="#F39295" stroke-opacity="1.00" stroke-width="0.3"><path d="
M 267.00 113.00 
C 269.08 112.84 278.42 112.65 280.00 111.00
C 273.41 111.58 266.18 109.78 260.00 112.00
C 261.40 113.95 264.77 112.73 267.00 113.00 Z"/>
</g>
<g fill="None" fill-opacity="0.0" stroke="#B34E58" stroke-opacity="1.00" stroke-width="0.3"><path d="
M 201.00 140.00 
C 230.37 132.84 262.03 131.63 293.00 134.00
C 296.15 134.24 298.28 134.05 299.00 135.00
C 299.58 135.18 299.97 135.86 301.00 136.00
C 303.41 135.76 305.56 135.56 308.00 136.00
C 319.03 136.70 333.30 142.67 344.00 141.00
C 344.00 141.00 344.20 140.40 344.00 140.00
C 337.12 125.83 310.01 119.21 296.00 116.00
C 286.58 113.84 276.86 113.30 267.00 113.00
C 291.32 118.35 318.84 120.28 339.00 137.00
C 295.80 134.15 243.05 122.69 201.00 140.00 Z"/>
</g>
<g fill="None" fill-opacity="0.0" stroke="#EEAAB1" stroke-opacity="1.00" stroke-width="0.3"><path d="
M 293.00 135.00 
C 294.73 135.00 297.35 134.50 299.00 135.00
C 298.28 134.05 296.15 134.24 293.00 134.00
C 293.00 134.00 293.15 134.95 293.00 135.00 Z"/>
</g>
<g fill="None" fill-opacity="0.0" stroke="#3B1819" stroke-opacity="1.00" stroke-width="0.3"><path d="
M 344.00 141.00 
C 333.30 142.67 319.03 136.70 308.00 136.00
C 305.70 135.85 303.28 136.31 301.00 136.00
C 299.97 135.86 299.58 135.18 299.00 135.00
C 297.35 134.50 294.73 135.00 293.00 135.00
C 291.33 135.00 289.67 135.00 288.00 135.00
C 293.20 135.50 301.95 138.04 307.78 137.22 C 313.60 136.40 321.68 140.77 326.78 140.22 C 331.88 139.67 341.29 146.02 344.00 141.00 Z"/>
</g>
<g fill="None" fill-opacity="0.0" stroke="#C48084" stroke-opacity="1.00" stroke-width="0.3"><path d="
M 301.00 136.00 
C 303.28 136.31 305.70 135.85 308.00 136.00
C 305.56 135.56 303.41 135.76 301.00 136.00 Z"/>
</g>
<g fill="None" fill-opacity="0.0" stroke="#757474" stroke-opacity="1.00" stroke-width="0.3"><path d="
M 261.00 140.00 
C 273.33 140.00 285.67 140.00 298.00 140.00
C 286.44 138.88 272.63 138.87 261.00 140.00 Z"/>
</g>
<g fill="None" fill-opacity="0.0" stroke="#2C2C2C" stroke-opacity="1.00" stroke-width="0.3"><path d="
M 302.00 145.00 
C 298.44 143.47 294.93 153.74 293.30 156.30 C 291.68 158.86 287.66 165.86 285.92 168.92 C 284.18 171.99 280.52 179.21 278.92 181.92 C 277.31 184.63 270.67 193.04 274.30 194.64 C 277.94 196.24 280.48 186.05 282.75 183.75 C 285.01 181.45 288.18 173.98 290.08 171.08 C 291.99 168.18 295.73 160.63 297.08 158.08 C 298.44 155.53 304.99 146.29 302.00 145.00 Z"/>
</g>
<g fill="None" fill-opacity="0.0" stroke="#383838" stroke-opacity="1.00" stroke-width="0.3"><path d="
M 284.00 149.00 
C 281.00 147.36 270.02 150.37 271.08 155.92 C 272.15 161.46 283.22 152.56 286.00 157.00
C 285.44 154.25 282.97 152.26 284.00 149.00
M 281.00 151.00 
C 280.11 153.14 278.94 155.76 276.00 155.00
C 275.91 152.53 278.58 150.46 281.00 151.00 Z"/>
</g>
<g fill="None" fill-opacity="0.0" stroke="#313131" stroke-opacity="1.00" stroke-width="0.3"><path d="
M 250.00 149.00 
C 246.33 148.04 242.99 150.22 243.00 154.00
C 246.42 154.59 250.05 152.63 250.00 149.00 Z"/>
</g>
<g fill="None" fill-opacity="0.0" stroke="#373737" stroke-opacity="1.00" stroke-width="0.3"><path d="
M 271.00 150.00 
C 266.88 150.21 262.81 150.67 259.00 152.00
C 267.51 153.26 263.08 154.89 259.79 159.77 C 256.49 164.65 270.32 163.05 272.00 161.00
C 270.30 158.81 266.52 160.56 264.00 160.00
C 265.64 156.30 271.46 154.59 271.00 150.00 Z"/>
</g>
<g fill="None" fill-opacity="0.0" stroke="#DEDEDE" stroke-opacity="1.00" stroke-width="0.3"><path d="
M 281.00 151.00 
C 278.58 150.46 275.91 152.53 276.00 155.00
C 278.94 155.76 280.11 153.14 281.00 151.00 Z"/>
</g>
<g fill="None" fill-opacity="0.0" stroke="#2C2B2C" stroke-opacity="1.00" stroke-width="0.3"><path d="
M 229.00 169.00 
C 235.13 171.13 242.82 164.16 240.92 157.08 C 239.03 149.99 228.19 151.14 223.00 154.00
C 229.41 156.03 226.18 159.21 224.32 164.32 C 222.47 169.43 222.00 174.03 220.00 179.00
C 213.58 171.56 209.59 161.64 205.00 153.00
C 197.61 155.72 208.21 166.57 211.08 172.92 C 213.95 179.28 218.94 187.93 223.08 193.92 C 227.22 199.91 231.10 208.63 236.08 213.92 C 241.05 219.22 242.45 230.45 249.33 233.67 C 256.21 236.89 260.50 221.25 265.08 217.08 C 269.67 212.91 275.86 200.29 267.69 195.31 C 259.53 190.32 249.46 193.05 245.31 201.31 C 241.15 209.56 246.46 220.97 256.00 221.00
C 255.45 224.10 253.39 227.08 251.00 229.00
C 240.49 218.51 240.00 207.41 229.75 196.25 C 219.51 185.08 228.68 170.20 229.00 157.00
C 238.72 155.78 235.97 167.54 229.00 169.00
M 248.00 210.00 
C 247.84 209.56 248.00 209.00 248.00 209.00
C 241.03 199.93 265.14 188.33 268.75 199.25 C 272.36 210.17 259.22 222.76 250.00 218.00
C 248.55 215.55 249.08 212.57 248.00 210.00 Z"/>
</g>
<g fill="None" fill-opacity="0.0" stroke="#383838" stroke-opacity="1.00" stroke-width="0.3"><path d="
M 259.00 155.00 
C 255.16 155.01 251.49 155.72 248.00 157.00
C 258.02 158.05 246.61 163.40 247.00 169.00
C 252.67 167.97 258.50 167.58 264.00 166.00
C 260.99 163.72 255.83 165.63 252.00 165.00
C 253.63 161.30 259.46 159.59 259.00 155.00 Z"/>
</g>
<g fill="None" fill-opacity="0.0" stroke="#323232" stroke-opacity="1.00" stroke-width="0.3"><path d="
M 243.00 167.00 
C 245.83 165.31 249.38 157.41 244.00 157.00
C 243.19 160.03 240.65 164.31 243.00 167.00 Z"/>
</g>
<g fill="None" fill-opacity="0.0" stroke="#303030" stroke-opacity="1.00" stroke-width="0.3"><path d="
M 278.00 169.00 
C 274.53 167.86 271.85 167.57 270.00 164.00
C 268.46 167.65 265.12 171.47 261.00 172.00
C 269.43 172.94 261.37 185.09 267.00 189.00
C 266.85 180.10 268.10 170.40 278.00 169.00 Z"/>
</g>
<g fill="None" fill-opacity="0.0" stroke="#2E2E2E" stroke-opacity="1.00" stroke-width="0.3"><path d="
M 242.00 171.00 
C 234.13 171.89 237.96 183.23 231.00 186.00
C 234.46 188.92 231.53 194.07 235.00 197.00
C 239.72 194.70 235.54 190.83 239.31 187.31 C 243.07 183.78 244.12 189.71 246.00 192.00
C 247.65 188.40 246.96 184.03 250.00 181.00
C 251.01 188.98 257.16 181.53 261.00 183.00
C 263.19 181.30 261.44 177.52 262.00 175.00
C 258.39 174.80 258.07 179.35 256.00 181.00
C 254.79 177.00 254.28 175.19 250.00 178.00
C 248.39 175.63 250.53 173.49 249.00 171.00
C 244.39 171.95 246.60 179.49 242.00 181.00
C 239.10 178.37 243.17 174.38 242.00 171.00 Z"/>
</g>
<g fill="None" fill-opacity="0.0" stroke="#391919" stroke-opacity="1.00" stroke-width="0.3"><path d="
M 248.00 209.00 
C 248.33 200.02 257.54 194.21 264.74 199.26 C 271.95 204.31 260.05 217.18 257.00 217.00
C 253.78 216.81 251.78 215.66 250.00 213.00
C 249.27 211.91 248.70 210.93 248.00 210.00
C 249.08 212.57 248.55 215.55 250.00 218.00
C 259.22 222.76 272.36 210.17 268.75 199.25 C 265.14 188.33 241.03 199.93 248.00 209.00 Z"/>
</g>
<g fill="None" fill-opacity="0.0" stroke="#BB4E55" stroke-opacity="1.00" stroke-width="0.3"><path d="
M 248.00 209.00 
C 248.00 209.00 247.84 209.56 248.00 210.00
C 248.70 210.93 249.27 211.91 250.00 213.00
C 251.23 214.45 255.55 216.75 257.00 217.00
C 260.05 217.18 271.95 204.31 264.74 199.26 C 257.54 194.21 248.33 200.02 248.00 209.00
M 259.00 201.00 
C 259.87 203.56 261.54 206.52 260.00 209.00
C 258.96 207.72 253.68 201.77 259.00 201.00 Z"/>
</g>
<g fill="None" fill-opacity="0.0" stroke="#F6B5B7" stroke-opacity="1.00" stroke-width="0.3"><path d="
M 259.00 201.00 
C 253.68 201.77 258.96 207.72 260.00 209.00
C 261.54 206.52 259.87 203.56 259.00 201.00 Z"/>
</g>
<g fill="None" fill-opacity="0.0" stroke="#D2969C" stroke-opacity="1.00" stroke-width="0.3"><path d="
M 257.00 217.00 
C 255.55 216.75 251.23 214.45 250.00 213.00
C 251.78 215.66 253.78 216.81 257.00 217.00 Z"/>
</g>
<g fill="None" fill-opacity="0.0" stroke="#858485" stroke-opacity="1.00" stroke-width="0.3"><path d="
M 270.00 226.00 
C 273.57 219.13 265.94 220.34 270.00 226.00 Z"/>
</g>
<g fill="None" fill-opacity="0.0" stroke="#909090" stroke-opacity="1.00" stroke-width="0.3"><path d="
M 278.00 226.00 
C 278.50 219.57 275.19 225.50 273.00 221.00
C 271.76 226.36 274.85 225.20 278.00 226.00 Z"/>
</g>
<g fill="None" fill-opacity="0.0" stroke="#282828" stroke-opacity="1.00" stroke-width="0.3"><path d="
M 133.00 283.00 
C 135.00 283.00 137.00 283.00 139.00 283.00
C 139.48 280.03 137.31 274.05 142.00 274.00
C 151.07 276.07 160.89 269.48 156.97 260.03 C 153.05 250.57 141.64 253.41 133.00 253.00
C 133.91 257.37 131.78 263.84 133.00 268.00 C 134.22 272.16 130.66 279.61 133.00 283.00
M 146.00 259.00 
C 157.31 262.23 146.59 273.61 140.00 269.00
C 137.81 267.46 138.97 263.06 139.00 260.00 C 139.03 256.94 144.87 258.68 146.00 259.00 Z"/>
</g>
<g fill="None" fill-opacity="0.0" stroke="#595959" stroke-opacity="1.00" stroke-width="0.3"><path d="
M 163.00 277.00 
C 163.17 274.84 165.14 269.74 164.00 267.00 C 162.86 264.26 167.28 260.34 169.00 263.00
C 169.12 258.12 170.44 250.61 163.00 253.00
C 163.12 261.00 162.84 269.00 163.00 277.00
M 168.00 258.00 
C 165.67 257.02 164.41 256.88 164.00 255.00
C 166.00 252.27 169.22 255.07 168.00 258.00 Z"/>
</g>
<g fill="None" fill-opacity="0.0" stroke="#797979" stroke-opacity="1.00" stroke-width="0.3"><path d="
M 184.00 259.00 
C 182.01 258.76 178.69 257.11 176.00 258.00
C 176.00 256.33 176.00 254.67 176.00 253.00
C 169.10 257.69 181.91 258.96 184.00 259.00 Z"/>
</g>
<g fill="None" fill-opacity="0.0" stroke="#292929" stroke-opacity="1.00" stroke-width="0.3"><path d="
M 184.00 259.00 
C 186.20 259.44 189.55 258.04 191.00 260.00
C 185.58 267.49 175.01 273.96 175.00 284.00
C 182.97 281.50 201.66 289.86 201.00 278.00
C 195.33 278.00 189.67 278.00 184.00 278.00
C 188.49 269.24 200.19 263.56 200.00 253.00
C 193.90 255.79 181.47 249.28 176.00 253.00
C 176.00 254.67 176.00 256.33 176.00 258.00
C 178.69 257.11 182.01 258.76 184.00 259.00 Z"/>
</g>
<g fill="None" fill-opacity="0.0" stroke="#272727" stroke-opacity="1.00" stroke-width="0.3"><path d="
M 207.00 258.00 
C 209.20 259.47 215.51 257.93 218.00 259.00
C 219.00 259.00 220.00 259.00 221.00 259.00
C 217.28 268.06 204.78 273.17 206.00 284.00
C 213.71 281.59 231.89 289.73 231.00 278.00
C 225.67 278.00 220.33 278.00 215.00 278.00
C 218.50 268.88 230.47 263.27 231.00 253.00
C 222.67 253.00 214.33 253.00 206.00 253.00
C 205.98 254.92 205.71 256.71 207.00 258.00 Z"/>
</g>
<g fill="None" fill-opacity="0.0" stroke="#282828" stroke-opacity="1.00" stroke-width="0.3"><path d="
M 255.00 253.00 
C 252.33 253.00 249.67 253.00 247.00 253.00
C 243.85 263.63 237.66 273.27 235.00 284.00
C 241.41 286.62 241.22 280.93 244.33 278.33 C 247.44 275.73 254.44 279.59 258.00 278.00
C 258.28 283.01 262.20 285.17 267.00 284.00
C 264.05 273.30 257.52 263.78 255.00 253.00
M 251.00 261.00 
C 252.57 264.60 254.63 268.03 255.00 272.00
C 252.00 272.00 249.00 272.00 246.00 272.00
C 247.91 268.47 248.33 263.88 251.00 261.00 Z"/>
</g>
<g fill="None" fill-opacity="0.0" stroke="#2A2A2A" stroke-opacity="1.00" stroke-width="0.3"><path d="
M 289.00 253.00 
C 280.02 250.43 281.98 258.92 282.00 265.00 C 282.02 271.08 281.99 277.85 282.00 284.00
C 291.09 286.60 288.94 276.59 289.00 271.00
C 293.33 271.00 297.67 271.00 302.00 271.00
C 302.00 275.33 302.00 279.67 302.00 284.00
C 311.99 286.65 308.84 273.92 309.00 268.00 C 309.16 262.08 311.48 250.40 302.00 253.00
C 302.00 257.00 302.00 261.00 302.00 265.00
C 297.67 265.00 293.33 265.00 289.00 265.00
C 289.00 261.00 289.00 257.00 289.00 253.00 Z"/>
</g>
<g fill="None" fill-opacity="0.0" stroke="#868686" stroke-opacity="1.00" stroke-width="0.3"><path d="
M 316.00 272.00 
C 315.43 265.72 316.43 259.29 316.00 253.00
C 312.70 255.21 315.38 269.00 316.00 272.00 Z"/>
</g>
<g fill="None" fill-opacity="0.0" stroke="#262626" stroke-opacity="1.00" stroke-width="0.3"><path d="
M 316.00 272.00 
C 315.22 280.42 323.01 284.02 330.00 284.00 C 336.98 283.98 343.49 278.16 343.00 271.00 C 342.51 263.84 346.76 250.50 336.00 253.00
C 334.52 260.09 340.59 278.35 329.01 277.99 C 317.43 277.64 323.58 260.29 322.00 253.00
C 320.47 253.70 317.38 252.08 316.00 253.00
C 316.43 259.29 315.43 265.72 316.00 272.00 Z"/>
</g>
<g fill="None" fill-opacity="0.0" stroke="#252525" stroke-opacity="1.00" stroke-width="0.3"><path d="
M 373.00 253.00 
C 365.03 255.50 346.34 247.14 347.00 259.00
C 350.33 259.00 353.67 259.00 357.00 259.00
C 359.41 266.71 351.27 284.89 363.00 284.00
C 363.00 275.67 363.00 267.33 363.00 259.00
C 367.56 259.31 375.08 260.01 373.00 253.00 Z"/>
</g>
<g fill="None" fill-opacity="0.0" stroke="#2F2F2F" stroke-opacity="1.00" stroke-width="0.3"><path d="
M 168.00 258.00 
C 169.22 255.07 166.00 252.27 164.00 255.00
C 164.41 256.88 165.67 257.02 168.00 258.00 Z"/>
</g>
<g fill="None" fill-opacity="0.0" stroke="#737373" stroke-opacity="1.00" stroke-width="0.3"><path d="
M 140.00 269.00 
C 140.00 265.67 140.00 262.33 140.00 259.00
C 142.00 259.00 144.00 259.00 146.00 259.00
C 144.87 258.68 139.03 256.94 139.00 260.00 C 138.97 263.06 137.81 267.46 140.00 269.00 Z"/>
</g>
<g fill="None" fill-opacity="0.0" stroke="#838383" stroke-opacity="1.00" stroke-width="0.3"><path d="
M 218.00 259.00 
C 215.51 257.93 209.20 259.47 207.00 258.00
C 209.49 260.49 214.65 258.19 218.00 259.00 Z"/>
</g>
<g fill="None" fill-opacity="0.0" stroke="#F9F9F9" stroke-opacity="1.00" stroke-width="0.3"><path d="
M 140.00 269.00 
C 146.59 273.61 157.31 262.23 146.00 259.00
C 144.00 259.00 142.00 259.00 140.00 259.00
C 140.00 262.33 140.00 265.67 140.00 269.00 Z"/>
</g>
<g fill="None" fill-opacity="0.0" stroke="#EEEEEE" stroke-opacity="1.00" stroke-width="0.3"><path d="
M 251.00 261.00 
C 248.33 263.88 247.91 268.47 246.00 272.00
C 249.00 272.00 252.00 272.00 255.00 272.00
C 254.63 268.03 252.57 264.60 251.00 261.00 Z"/>
</g>
<g fill="None" fill-opacity="0.0" stroke="#323232" stroke-opacity="1.00" stroke-width="0.3"><path d="
M 163.00 277.00 
C 162.04 281.75 163.50 285.67 169.00 284.00
C 169.00 277.00 169.00 270.00 169.00 263.00
C 167.28 260.34 162.86 264.26 164.00 267.00 C 165.14 269.74 163.17 274.84 163.00 277.00 Z"/>
</g>
<g fill="None" fill-opacity="0.0" stroke="#7B7B7B" stroke-opacity="1.00" stroke-width="0.3"><path d="
M 133.00 283.00 
C 138.42 290.86 140.67 274.67 142.00 274.00
C 137.31 274.05 139.48 280.03 139.00 283.00
C 137.00 283.00 135.00 283.00 133.00 283.00 Z"/>
</g>
<g fill="None" fill-opacity="0.0" stroke="#333333" stroke-opacity="1.00" stroke-width="0.3"><path d="
M 165.00 307.00 
C 181.03 309.92 174.12 288.75 161.00 295.00
C 159.46 300.52 162.29 321.54 165.00 307.00
M 165.00 298.00 
C 179.41 297.17 163.33 311.56 165.00 298.00 Z"/>
</g>
<g fill="None" fill-opacity="0.0" stroke="#313131" stroke-opacity="1.00" stroke-width="0.3"><path d="
M 189.00 306.00 
C 199.69 300.40 185.78 291.45 178.00 295.00
C 176.46 300.52 179.29 321.54 182.00 307.00
C 187.62 305.12 186.37 314.30 192.00 313.00
C 192.25 310.14 189.05 308.68 189.00 306.00
M 182.00 304.00 
C 180.25 289.85 197.24 306.20 182.00 304.00 Z"/>
</g>
<g fill="None" fill-opacity="0.0" stroke="#4F4F4F" stroke-opacity="1.00" stroke-width="0.3"><path d="
M 200.00 312.00 
C 199.19 312.39 197.85 311.69 197.00 312.00
C 197.65 306.84 195.69 300.34 198.00 296.00
C 200.86 299.60 197.12 306.47 200.00 310.00
C 198.59 305.34 203.50 294.24 196.00 295.00
C 196.00 301.00 196.00 307.00 196.00 313.00
C 197.57 312.96 199.05 313.29 200.00 312.00 Z"/>
</g>
<g fill="None" fill-opacity="0.0" stroke="#2F2F2F" stroke-opacity="1.00" stroke-width="0.3"><path d="
M 216.00 295.00 
C 203.58 291.46 199.17 309.14 210.33 312.67 C 221.49 316.20 226.37 297.96 216.00 295.00
M 214.00 298.00 
C 220.97 299.30 218.30 311.26 211.00 309.00 C 203.70 306.74 207.44 296.78 214.00 298.00 Z"/>
</g>
<g fill="None" fill-opacity="0.0" stroke="#2F2F2F" stroke-opacity="1.00" stroke-width="0.3"><path d="
M 236.00 306.00 
C 246.66 300.42 232.88 291.21 225.00 295.00
C 226.59 300.47 221.22 312.23 229.00 313.00
C 228.72 309.93 228.56 305.54 233.00 307.00
C 233.25 310.39 236.16 314.03 240.00 313.00
C 238.84 310.59 236.31 308.73 236.00 306.00
M 229.00 304.00 
C 227.25 289.85 244.24 306.20 229.00 304.00 Z"/>
</g>
<g fill="None" fill-opacity="0.0" stroke="#343434" stroke-opacity="1.00" stroke-width="0.3"><path d="
M 247.00 295.00 
C 240.57 294.24 240.67 312.95 247.00 313.00
C 247.00 307.00 247.00 301.00 247.00 295.00 Z"/>
</g>
<g fill="None" fill-opacity="0.0" stroke="#2A2A2A" stroke-opacity="1.00" stroke-width="0.3"><path d="
M 265.00 297.00 
C 263.24 293.67 251.76 293.78 250.00 297.00
C 260.92 295.84 251.69 311.76 259.00 313.00
C 259.60 306.61 256.14 296.51 265.00 297.00 Z"/>
</g>
<g fill="None" fill-opacity="0.0" stroke="#2F2F2F" stroke-opacity="1.00" stroke-width="0.3"><path d="
M 274.00 302.00 
C 271.54 299.30 271.03 293.59 266.00 295.00
C 271.76 299.93 269.64 311.01 276.00 313.00
C 273.90 305.57 280.19 301.12 282.00 295.00
C 277.03 294.00 277.26 300.36 274.00 302.00 Z"/>
</g>
<g fill="None" fill-opacity="0.0" stroke="#2E2E2E" stroke-opacity="1.00" stroke-width="0.3"><path d="
M 296.00 307.00 
C 312.43 310.34 305.34 288.73 292.00 295.00
C 292.00 301.00 292.00 307.00 292.00 313.00
C 296.46 314.30 296.35 310.15 296.00 307.00
M 296.00 304.00 
C 294.06 289.89 311.09 306.38 296.00 304.00 Z"/>
</g>
<g fill="None" fill-opacity="0.0" stroke="#2A2A2A" stroke-opacity="1.00" stroke-width="0.3"><path d="
M 321.00 306.00 
C 330.11 299.29 317.27 291.94 310.00 295.00
C 311.17 300.54 307.57 309.88 312.00 313.00
C 313.09 301.74 318.30 311.54 324.00 313.00
C 324.33 310.08 319.86 309.20 321.00 306.00
M 313.00 304.00 
C 311.25 289.85 328.24 306.20 313.00 304.00 Z"/>
</g>
<g fill="None" fill-opacity="0.0" stroke="#2F2F2F" stroke-opacity="1.00" stroke-width="0.3"><path d="
M 340.00 295.00 
C 328.31 291.15 321.87 306.99 332.78 312.22 C 343.68 317.45 349.89 298.25 340.00 295.00
M 338.00 298.00 
C 344.74 299.94 341.04 311.71 334.00 309.00 C 326.96 306.29 331.30 296.07 338.00 298.00 Z"/>
</g>
<g fill="None" fill-opacity="0.0" stroke="#222222" stroke-opacity="1.00" stroke-width="0.3"><path d="
M 200.00 312.00 
C 200.24 311.67 200.00 310.50 200.00 310.00
C 197.12 306.47 200.86 299.60 198.00 296.00
C 195.69 300.34 197.65 306.84 197.00 312.00
C 197.85 311.69 199.19 312.39 200.00 312.00 Z"/>
</g>
<g fill="None" fill-opacity="0.0" stroke="#EEEEEE" stroke-opacity="1.00" stroke-width="0.3"><path d="
M 165.00 298.00 
C 163.33 311.56 179.41 297.17 165.00 298.00 Z"/>
</g>
<g fill="None" fill-opacity="0.0" stroke="#F1F1F1" stroke-opacity="1.00" stroke-width="0.3"><path d="
M 182.00 304.00 
C 197.24 306.20 180.25 289.85 182.00 304.00 Z"/>
</g>
<g fill="None" fill-opacity="0.0" stroke="#F4F4F4" stroke-opacity="1.00" stroke-width="0.3"><path d="
M 214.00 298.00 
C 207.44 296.78 203.70 306.74 211.00 309.00 C 218.30 311.26 220.97 299.30 214.00 298.00 Z"/>
</g>
<g fill="None" fill-opacity="0.0" stroke="#F1F1F1" stroke-opacity="1.00" stroke-width="0.3"><path d="
M 229.00 304.00 
C 244.24 306.20 227.25 289.85 229.00 304.00 Z"/>
</g>
<g fill="None" fill-opacity="0.0" stroke="#ECECEC" stroke-opacity="1.00" stroke-width="0.3"><path d="
M 296.00 304.00 
C 311.09 306.38 294.06 289.89 296.00 304.00 Z"/>
</g>
<g fill="None" fill-opacity="0.0" stroke="#EDEDED" stroke-opacity="1.00" stroke-width="0.3"><path d="
M 313.00 304.00 
C 328.24 306.20 311.25 289.85 313.00 304.00 Z"/>
</g>
<g fill="None" fill-opacity="0.0" stroke="#F2F2F2" stroke-opacity="1.00" stroke-width="0.3"><path d="
M 338.00 298.00 
C 331.30 296.07 326.96 306.29 334.00 309.00 C 341.04 311.71 344.74 299.94 338.00 298.00 Z"/>
</g>
<g fill="None" fill-opacity="0.0" stroke="#AD656E" stroke-opacity="1.00" stroke-width="0.3"><path d="
M 151.00 302.00 
C 144.67 302.00 138.33 302.00 132.00 302.00
C 134.03 306.89 149.83 306.87 151.00 302.00 Z"/>
</g>
<g fill="None" fill-opacity="0.0" stroke="#A65F67" stroke-opacity="1.00" stroke-width="0.3"><path d="
M 373.00 303.00 
C 367.47 302.36 354.94 299.14 353.00 305.00
C 359.39 303.85 368.15 307.41 373.00 303.00 Z"/>
</g>
<g fill="#FEFEFE" fill-opacity="1.00" stroke="None">
<path d="
M 0.00 386.00 
L 493.00 386.00
L 493.00 0.00
L 0.00 0.00
L 0.00 386.00
M 275.00 74.00 
C 285.20 77.10 284.44 90.89 288.93 100.07 C 293.41 109.25 306.77 108.31 317.02 112.98 C 327.28 117.64 332.56 119.52 343.08 126.92 C 353.61 134.31 348.94 147.49 334.99 144.01 C 321.05 140.53 311.96 140.00 298.00 140.00
C 285.67 140.00 273.33 140.00 261.00 140.00
C 248.29 140.00 235.35 143.19 223.00 144.00 C 210.65 144.81 200.30 149.89 188.33 151.33 C 176.35 152.77 168.57 161.48 155.99 160.99 C 143.41 160.51 154.50 144.40 162.75 139.75 C 171.00 135.11 177.97 127.26 187.70 122.70 C 197.42 118.13 197.93 105.25 201.92 94.92 C 205.92 84.60 218.00 82.66 228.67 79.67 C 239.34 76.68 253.09 74.00 265.00 74.00
C 268.41 73.67 271.48 72.93 275.00 74.00
M 302.00 145.00 
C 304.99 146.29 298.44 155.53 297.08 158.08 C 295.73 160.63 291.99 168.18 290.08 171.08 C 288.18 173.98 285.01 181.45 282.75 183.75 C 280.48 186.05 277.94 196.24 274.30 194.64 C 270.67 193.04 277.31 184.63 278.92 181.92 C 280.52 179.21 284.18 171.99 285.92 168.92 C 287.66 165.86 291.68 158.86 293.30 156.30 C 294.93 153.74 298.44 143.47 302.00 145.00
M 284.00 149.00 
C 282.97 152.26 285.44 154.25 286.00 157.00
C 283.22 152.56 272.15 161.46 271.08 155.92 C 270.02 150.37 281.00 147.36 284.00 149.00
M 250.00 149.00 
C 250.05 152.63 246.42 154.59 243.00 154.00
C 242.99 150.22 246.33 148.04 250.00 149.00
M 271.00 150.00 
C 271.46 154.59 265.64 156.30 264.00 160.00
C 266.52 160.56 270.30 158.81 272.00 161.00
C 270.32 163.05 256.49 164.65 259.79 159.77 C 263.08 154.89 267.51 153.26 259.00 152.00
C 262.81 150.67 266.88 150.21 271.00 150.00
M 229.00 169.00 
C 235.97 167.54 238.72 155.78 229.00 157.00
C 228.68 170.20 219.51 185.08 229.75 196.25 C 240.00 207.41 240.49 218.51 251.00 229.00
C 253.39 227.08 255.45 224.10 256.00 221.00
C 246.46 220.97 241.15 209.56 245.31 201.31 C 249.46 193.05 259.53 190.32 267.69 195.31 C 275.86 200.29 269.67 212.91 265.08 217.08 C 260.50 221.25 256.21 236.89 249.33 233.67 C 242.45 230.45 241.05 219.22 236.08 213.92 C 231.10 208.63 227.22 199.91 223.08 193.92 C 218.94 187.93 213.95 179.28 211.08 172.92 C 208.21 166.57 197.61 155.72 205.00 153.00
C 209.59 161.64 213.58 171.56 220.00 179.00
C 222.00 174.03 222.47 169.43 224.32 164.32 C 226.18 159.21 229.41 156.03 223.00 154.00
C 228.19 151.14 239.03 149.99 240.92 157.08 C 242.82 164.16 235.13 171.13 229.00 169.00
M 259.00 155.00 
C 259.46 159.59 253.63 161.30 252.00 165.00
C 255.83 165.63 260.99 163.72 264.00 166.00
C 258.50 167.58 252.67 167.97 247.00 169.00
C 246.61 163.40 258.02 158.05 248.00 157.00
C 251.49 155.72 255.16 155.01 259.00 155.00
M 243.00 167.00 
C 240.65 164.31 243.19 160.03 244.00 157.00
C 249.38 157.41 245.83 165.31 243.00 167.00
M 278.00 169.00 
C 268.10 170.40 266.85 180.10 267.00 189.00
C 261.37 185.09 269.43 172.94 261.00 172.00
C 265.12 171.47 268.46 167.65 270.00 164.00
C 271.85 167.57 274.53 167.86 278.00 169.00
M 242.00 171.00 
C 243.17 174.38 239.10 178.37 242.00 181.00
C 246.60 179.49 244.39 171.95 249.00 171.00
C 250.53 173.49 248.39 175.63 250.00 178.00
C 254.28 175.19 254.79 177.00 256.00 181.00
C 258.07 179.35 258.39 174.80 262.00 175.00
C 261.44 177.52 263.19 181.30 261.00 183.00
C 257.16 181.53 251.01 188.98 250.00 181.00
C 246.96 184.03 247.65 188.40 246.00 192.00
C 244.12 189.71 243.07 183.78 239.31 187.31 C 235.54 190.83 239.72 194.70 235.00 197.00
C 231.53 194.07 234.46 188.92 231.00 186.00
C 237.96 183.23 234.13 171.89 242.00 171.00
M 270.00 226.00 
C 265.94 220.34 273.57 219.13 270.00 226.00
M 278.00 226.00 
C 274.85 225.20 271.76 226.36 273.00 221.00
C 275.19 225.50 278.50 219.57 278.00 226.00
M 142.00 274.00 
C 140.67 274.67 138.42 290.86 133.00 283.00
C 130.66 279.61 134.22 272.16 133.00 268.00 C 131.78 263.84 133.91 257.37 133.00 253.00
C 141.64 253.41 153.05 250.57 156.97 260.03 C 160.89 269.48 151.07 276.07 142.00 274.00
M 169.00 263.00 
C 169.00 270.00 169.00 277.00 169.00 284.00
C 163.50 285.67 162.04 281.75 163.00 277.00
C 162.84 269.00 163.12 261.00 163.00 253.00
C 170.44 250.61 169.12 258.12 169.00 263.00
M 184.00 259.00 
C 181.91 258.96 169.10 257.69 176.00 253.00
C 181.47 249.28 193.90 255.79 200.00 253.00
C 200.19 263.56 188.49 269.24 184.00 278.00
C 189.67 278.00 195.33 278.00 201.00 278.00
C 201.66 289.86 182.97 281.50 175.00 284.00
C 175.01 273.96 185.58 267.49 191.00 260.00
C 189.55 258.04 186.20 259.44 184.00 259.00
M 218.00 259.00 
C 214.65 258.19 209.49 260.49 207.00 258.00
C 205.71 256.71 205.98 254.92 206.00 253.00
C 214.33 253.00 222.67 253.00 231.00 253.00
C 230.47 263.27 218.50 268.88 215.00 278.00
C 220.33 278.00 225.67 278.00 231.00 278.00
C 231.89 289.73 213.71 281.59 206.00 284.00
C 204.78 273.17 217.28 268.06 221.00 259.00
C 220.00 259.00 219.00 259.00 218.00 259.00
M 255.00 253.00 
C 257.52 263.78 264.05 273.30 267.00 284.00
C 262.20 285.17 258.28 283.01 258.00 278.00
C 254.44 279.59 247.44 275.73 244.33 278.33 C 241.22 280.93 241.41 286.62 235.00 284.00
C 237.66 273.27 243.85 263.63 247.00 253.00
C 249.67 253.00 252.33 253.00 255.00 253.00
M 289.00 253.00 
C 289.00 257.00 289.00 261.00 289.00 265.00
C 293.33 265.00 297.67 265.00 302.00 265.00
C 302.00 261.00 302.00 257.00 302.00 253.00
C 311.48 250.40 309.16 262.08 309.00 268.00 C 308.84 273.92 311.99 286.65 302.00 284.00
C 302.00 279.67 302.00 275.33 302.00 271.00
C 297.67 271.00 293.33 271.00 289.00 271.00
C 288.94 276.59 291.09 286.60 282.00 284.00
C 281.99 277.85 282.02 271.08 282.00 265.00 C 281.98 258.92 280.02 250.43 289.00 253.00
M 316.00 272.00 
C 315.38 269.00 312.70 255.21 316.00 253.00
C 317.38 252.08 320.47 253.70 322.00 253.00
C 323.58 260.29 317.43 277.64 329.01 277.99 C 340.59 278.35 334.52 260.09 336.00 253.00
C 346.76 250.50 342.51 263.84 343.00 271.00 C 343.49 278.16 336.98 283.98 330.00 284.00 C 323.01 284.02 315.22 280.42 316.00 272.00
M 373.00 253.00 
C 375.08 260.01 367.56 259.31 363.00 259.00
C 363.00 267.33 363.00 275.67 363.00 284.00
C 351.27 284.89 359.41 266.71 357.00 259.00
C 353.67 259.00 350.33 259.00 347.00 259.00
C 346.34 247.14 365.03 255.50 373.00 253.00
M 165.00 307.00 
C 162.29 321.54 159.46 300.52 161.00 295.00
C 174.12 288.75 181.03 309.92 165.00 307.00
M 189.00 306.00 
C 189.05 308.68 192.25 310.14 192.00 313.00
C 186.37 314.30 187.62 305.12 182.00 307.00
C 179.29 321.54 176.46 300.52 178.00 295.00
C 185.78 291.45 199.69 300.40 189.00 306.00
M 200.00 310.00 
C 200.00 310.50 200.24 311.67 200.00 312.00
C 199.05 313.29 197.57 312.96 196.00 313.00
C 196.00 307.00 196.00 301.00 196.00 295.00
C 203.50 294.24 198.59 305.34 200.00 310.00
M 216.00 295.00 
C 226.37 297.96 221.49 316.20 210.33 312.67 C 199.17 309.14 203.58 291.46 216.00 295.00
M 236.00 306.00 
C 236.31 308.73 238.84 310.59 240.00 313.00
C 236.16 314.03 233.25 310.39 233.00 307.00
C 228.56 305.54 228.72 309.93 229.00 313.00
C 221.22 312.23 226.59 300.47 225.00 295.00
C 232.88 291.21 246.66 300.42 236.00 306.00
M 247.00 295.00 
C 247.00 301.00 247.00 307.00 247.00 313.00
C 240.67 312.95 240.57 294.24 247.00 295.00
M 265.00 297.00 
C 256.14 296.51 259.60 306.61 259.00 313.00
C 251.69 311.76 260.92 295.84 250.00 297.00
C 251.76 293.78 263.24 293.67 265.00 297.00
M 274.00 302.00 
C 277.26 300.36 277.03 294.00 282.00 295.00
C 280.19 301.12 273.90 305.57 276.00 313.00
C 269.64 311.01 271.76 299.93 266.00 295.00
C 271.03 293.59 271.54 299.30 274.00 302.00
M 296.00 307.00 
C 296.35 310.15 296.46 314.30 292.00 313.00
C 292.00 307.00 292.00 301.00 292.00 295.00
C 305.34 288.73 312.43 310.34 296.00 307.00
M 321.00 306.00 
C 319.86 309.20 324.33 310.08 324.00 313.00
C 318.30 311.54 313.09 301.74 312.00 313.00
C 307.57 309.88 311.17 300.54 310.00 295.00
C 317.27 291.94 330.11 299.29 321.00 306.00
M 340.00 295.00 
C 349.89 298.25 343.68 317.45 332.78 312.22 C 321.87 306.99 328.31 291.15 340.00 295.00
M 151.00 302.00 
C 149.83 306.87 134.03 306.89 132.00 302.00
C 138.33 302.00 144.67 302.00 151.00 302.00
M 373.00 303.00 
C 368.15 307.41 359.39 303.85 353.00 305.00
C 354.94 299.14 367.47 302.36 373.00 303.00 Z"/>
</g>
<g fill="#7A7A7A" fill-opacity="1.00" stroke="None">
<path d="
M 265.00 74.00 
C 268.18 74.00 271.87 73.47 275.00 74.00
C 271.48 72.93 268.41 73.67 265.00 74.00 Z"/>
</g>
<g fill="#262626" fill-opacity="1.00" stroke="None">
<path d="
M 261.00 140.00 
C 272.63 138.87 286.44 138.88 298.00 140.00
C 311.96 140.00 321.05 140.53 334.99 144.01 C 348.94 147.49 353.61 134.31 343.08 126.92 C 332.56 119.52 327.28 117.64 317.02 112.98 C 306.77 108.31 293.41 109.25 288.93 100.07 C 284.44 90.89 285.20 77.10 275.00 74.00
C 271.87 73.47 268.18 74.00 265.00 74.00
C 253.09 74.00 239.34 76.68 228.67 79.67 C 218.00 82.66 205.92 84.60 201.92 94.92 C 197.93 105.25 197.42 118.13 187.70 122.70 C 177.97 127.26 171.00 135.11 162.75 139.75 C 154.50 144.40 143.41 160.51 155.99 160.99 C 168.57 161.48 176.35 152.77 188.33 151.33 C 200.30 149.89 210.65 144.81 223.00 144.00 C 235.35 143.19 248.29 140.00 261.00 140.00
M 344.00 140.00 
C 344.20 140.40 344.00 141.00 344.00 141.00
C 341.29 146.02 331.88 139.67 326.78 140.22 C 321.68 140.77 313.60 136.40 307.78 137.22 C 301.95 138.04 293.20 135.50 288.00 135.00
C 241.04 135.00 196.91 142.18 154.00 157.00
C 159.25 146.41 169.17 141.16 178.75 133.75 C 188.32 126.33 202.06 123.98 201.98 108.98 C 201.89 93.97 214.14 87.92 227.02 85.02 C 239.91 82.13 253.87 77.68 268.00 78.00 C 282.13 78.32 281.90 98.35 286.00 109.00
C 296.49 111.86 310.87 114.59 320.23 119.77 C 329.59 124.95 345.80 128.19 344.00 140.00 Z"/>
</g>
<g fill="#F4E5E5" fill-opacity="1.00" stroke="None">
<path d="
M 288.00 135.00 
C 289.67 135.00 291.33 135.00 293.00 135.00
C 293.15 134.95 293.00 134.00 293.00 134.00
C 262.03 131.63 230.37 132.84 201.00 140.00
C 193.39 141.86 185.51 143.72 178.00 146.00
C 172.90 147.55 167.47 150.59 162.00 152.00
C 169.38 143.37 175.87 136.35 186.75 130.75 C 197.62 125.14 205.92 118.45 206.32 104.32 C 206.72 90.19 224.59 88.62 235.00 86.00
C 242.66 84.33 249.80 83.00 258.00 83.00
C 262.21 82.59 267.77 80.91 272.00 83.00
C 278.27 86.10 279.31 100.47 281.00 107.00
C 282.87 114.20 289.86 113.22 296.00 116.00
C 310.01 119.21 337.12 125.83 344.00 140.00
C 345.80 128.19 329.59 124.95 320.23 119.77 C 310.87 114.59 296.49 111.86 286.00 109.00
C 281.90 98.35 282.13 78.32 268.00 78.00 C 253.87 77.68 239.91 82.13 227.02 85.02 C 214.14 87.92 201.89 93.97 201.98 108.98 C 202.06 123.98 188.32 126.33 178.75 133.75 C 169.17 141.16 159.25 146.41 154.00 157.00
C 196.91 142.18 241.04 135.00 288.00 135.00 Z"/>
</g>
<g fill="#B16771" fill-opacity="1.00" stroke="None">
<path d="
M 258.00 83.00 
C 262.00 83.00 268.22 81.79 272.00 83.00
C 267.77 80.91 262.21 82.59 258.00 83.00 Z"/>
</g>
<g fill="#CF3D49" fill-opacity="1.00" stroke="None">
<path d="
M 235.00 86.00 
C 226.97 89.35 218.09 92.58 210.00 97.00
C 210.50 104.75 205.75 112.46 204.22 120.22 C 202.69 127.98 192.01 127.41 187.30 132.30 C 182.60 137.20 175.53 138.86 171.00 145.00
C 173.31 146.33 175.30 145.17 178.00 146.00
C 185.51 143.72 193.39 141.86 201.00 140.00
C 243.05 122.69 295.80 134.15 339.00 137.00
C 318.84 120.28 291.32 118.35 267.00 113.00
C 264.77 112.73 261.40 113.95 260.00 112.00
C 266.18 109.78 273.41 111.58 280.00 111.00
C 281.09 109.86 281.05 108.73 281.00 107.00
C 279.31 100.47 278.27 86.10 272.00 83.00
C 268.22 81.79 262.00 83.00 258.00 83.00
C 249.80 83.00 242.66 84.33 235.00 86.00 Z"/>
</g>
<g fill="#B04F59" fill-opacity="1.00" stroke="None">
<path d="
M 178.00 146.00 
C 175.30 145.17 173.31 146.33 171.00 145.00
C 175.53 138.86 182.60 137.20 187.30 132.30 C 192.01 127.41 202.69 127.98 204.22 120.22 C 205.75 112.46 210.50 104.75 210.00 97.00
C 218.09 92.58 226.97 89.35 235.00 86.00
C 224.59 88.62 206.72 90.19 206.32 104.32 C 205.92 118.45 197.62 125.14 186.75 130.75 C 175.87 136.35 169.38 143.37 162.00 152.00
C 167.47 150.59 172.90 147.55 178.00 146.00 Z"/>
</g>
<g fill="#FBCED2" fill-opacity="1.00" stroke="None">
<path d="
M 280.00 111.00 
C 278.42 112.65 269.08 112.84 267.00 113.00
C 276.86 113.30 286.58 113.84 296.00 116.00
C 289.86 113.22 282.87 114.20 281.00 107.00
C 281.05 108.73 281.09 109.86 280.00 111.00 Z"/>
</g>
<g fill="#F39295" fill-opacity="1.00" stroke="None">
<path d="
M 267.00 113.00 
C 269.08 112.84 278.42 112.65 280.00 111.00
C 273.41 111.58 266.18 109.78 260.00 112.00
C 261.40 113.95 264.77 112.73 267.00 113.00 Z"/>
</g>
<g fill="#B34E58" fill-opacity="1.00" stroke="None">
<path d="
M 201.00 140.00 
C 230.37 132.84 262.03 131.63 293.00 134.00
C 296.15 134.24 298.28 134.05 299.00 135.00
C 299.58 135.18 299.97 135.86 301.00 136.00
C 303.41 135.76 305.56 135.56 308.00 136.00
C 319.03 136.70 333.30 142.67 344.00 141.00
C 344.00 141.00 344.20 140.40 344.00 140.00
C 337.12 125.83 310.01 119.21 296.00 116.00
C 286.58 113.84 276.86 113.30 267.00 113.00
C 291.32 118.35 318.84 120.28 339.00 137.00
C 295.80 134.15 243.05 122.69 201.00 140.00 Z"/>
</g>
<g fill="#EEAAB1" fill-opacity="1.00" stroke="None">
<path d="
M 293.00 135.00 
C 294.73 135.00 297.35 134.50 299.00 135.00
C 298.28 134.05 296.15 134.24 293.00 134.00
C 293.00 134.00 293.15 134.95 293.00 135.00 Z"/>
</g>
<g fill="#3B1819" fill-opacity="1.00" stroke="None">
<path d="
M 344.00 141.00 
C 333.30 142.67 319.03 136.70 308.00 136.00
C 305.70 135.85 303.28 136.31 301.00 136.00
C 299.97 135.86 299.58 135.18 299.00 135.00
C 297.35 134.50 294.73 135.00 293.00 135.00
C 291.33 135.00 289.67 135.00 288.00 135.00
C 293.20 135.50 301.95 138.04 307.78 137.22 C 313.60 136.40 321.68 140.77 326.78 140.22 C 331.88 139.67 341.29 146.02 344.00 141.00 Z"/>
</g>
<g fill="#C48084" fill-opacity="1.00" stroke="None">
<path d="
M 301.00 136.00 
C 303.28 136.31 305.70 135.85 308.00 136.00
C 305.56 135.56 303.41 135.76 301.00 136.00 Z"/>
</g>
<g fill="#757474" fill-opacity="1.00" stroke="None">
<path d="
M 261.00 140.00 
C 273.33 140.00 285.67 140.00 298.00 140.00
C 286.44 138.88 272.63 138.87 261.00 140.00 Z"/>
</g>
<g fill="#2C2C2C" fill-opacity="1.00" stroke="None">
<path d="
M 302.00 145.00 
C 298.44 143.47 294.93 153.74 293.30 156.30 C 291.68 158.86 287.66 165.86 285.92 168.92 C 284.18 171.99 280.52 179.21 278.92 181.92 C 277.31 184.63 270.67 193.04 274.30 194.64 C 277.94 196.24 280.48 186.05 282.75 183.75 C 285.01 181.45 288.18 173.98 290.08 171.08 C 291.99 168.18 295.73 160.63 297.08 158.08 C 298.44 155.53 304.99 146.29 302.00 145.00 Z"/>
</g>
<g fill="#383838" fill-opacity="1.00" stroke="None">
<path d="
M 284.00 149.00 
C 281.00 147.36 270.02 150.37 271.08 155.92 C 272.15 161.46 283.22 152.56 286.00 157.00
C 285.44 154.25 282.97 152.26 284.00 149.00
M 281.00 151.00 
C 280.11 153.14 278.94 155.76 276.00 155.00
C 275.91 152.53 278.58 150.46 281.00 151.00 Z"/>
</g>
<g fill="#313131" fill-opacity="1.00" stroke="None">
<path d="
M 250.00 149.00 
C 246.33 148.04 242.99 150.22 243.00 154.00
C 246.42 154.59 250.05 152.63 250.00 149.00 Z"/>
</g>
<g fill="#373737" fill-opacity="1.00" stroke="None">
<path d="
M 271.00 150.00 
C 266.88 150.21 262.81 150.67 259.00 152.00
C 267.51 153.26 263.08 154.89 259.79 159.77 C 256.49 164.65 270.32 163.05 272.00 161.00
C 270.30 158.81 266.52 160.56 264.00 160.00
C 265.64 156.30 271.46 154.59 271.00 150.00 Z"/>
</g>
<g fill="#DEDEDE" fill-opacity="1.00" stroke="None">
<path d="
M 281.00 151.00 
C 278.58 150.46 275.91 152.53 276.00 155.00
C 278.94 155.76 280.11 153.14 281.00 151.00 Z"/>
</g>
<g fill="#2C2B2C" fill-opacity="1.00" stroke="None">
<path d="
M 229.00 169.00 
C 235.13 171.13 242.82 164.16 240.92 157.08 C 239.03 149.99 228.19 151.14 223.00 154.00
C 229.41 156.03 226.18 159.21 224.32 164.32 C 222.47 169.43 222.00 174.03 220.00 179.00
C 213.58 171.56 209.59 161.64 205.00 153.00
C 197.61 155.72 208.21 166.57 211.08 172.92 C 213.95 179.28 218.94 187.93 223.08 193.92 C 227.22 199.91 231.10 208.63 236.08 213.92 C 241.05 219.22 242.45 230.45 249.33 233.67 C 256.21 236.89 260.50 221.25 265.08 217.08 C 269.67 212.91 275.86 200.29 267.69 195.31 C 259.53 190.32 249.46 193.05 245.31 201.31 C 241.15 209.56 246.46 220.97 256.00 221.00
C 255.45 224.10 253.39 227.08 251.00 229.00
C 240.49 218.51 240.00 207.41 229.75 196.25 C 219.51 185.08 228.68 170.20 229.00 157.00
C 238.72 155.78 235.97 167.54 229.00 169.00
M 248.00 210.00 
C 247.84 209.56 248.00 209.00 248.00 209.00
C 241.03 199.93 265.14 188.33 268.75 199.25 C 272.36 210.17 259.22 222.76 250.00 218.00
C 248.55 215.55 249.08 212.57 248.00 210.00 Z"/>
</g>
<g fill="#383838" fill-opacity="1.00" stroke="None">
<path d="
M 259.00 155.00 
C 255.16 155.01 251.49 155.72 248.00 157.00
C 258.02 158.05 246.61 163.40 247.00 169.00
C 252.67 167.97 258.50 167.58 264.00 166.00
C 260.99 163.72 255.83 165.63 252.00 165.00
C 253.63 161.30 259.46 159.59 259.00 155.00 Z"/>
</g>
<g fill="#323232" fill-opacity="1.00" stroke="None">
<path d="
M 243.00 167.00 
C 245.83 165.31 249.38 157.41 244.00 157.00
C 243.19 160.03 240.65 164.31 243.00 167.00 Z"/>
</g>
<g fill="#303030" fill-opacity="1.00" stroke="None">
<path d="
M 278.00 169.00 
C 274.53 167.86 271.85 167.57 270.00 164.00
C 268.46 167.65 265.12 171.47 261.00 172.00
C 269.43 172.94 261.37 185.09 267.00 189.00
C 266.85 180.10 268.10 170.40 278.00 169.00 Z"/>
</g>
<g fill="#2E2E2E" fill-opacity="1.00" stroke="None">
<path d="
M 242.00 171.00 
C 234.13 171.89 237.96 183.23 231.00 186.00
C 234.46 188.92 231.53 194.07 235.00 197.00
C 239.72 194.70 235.54 190.83 239.31 187.31 C 243.07 183.78 244.12 189.71 246.00 192.00
C 247.65 188.40 246.96 184.03 250.00 181.00
C 251.01 188.98 257.16 181.53 261.00 183.00
C 263.19 181.30 261.44 177.52 262.00 175.00
C 258.39 174.80 258.07 179.35 256.00 181.00
C 254.79 177.00 254.28 175.19 250.00 178.00
C 248.39 175.63 250.53 173.49 249.00 171.00
C 244.39 171.95 246.60 179.49 242.00 181.00
C 239.10 178.37 243.17 174.38 242.00 171.00 Z"/>
</g>
<g fill="#391919" fill-opacity="1.00" stroke="None">
<path d="
M 248.00 209.00 
C 248.33 200.02 257.54 194.21 264.74 199.26 C 271.95 204.31 260.05 217.18 257.00 217.00
C 253.78 216.81 251.78 215.66 250.00 213.00
C 249.27 211.91 248.70 210.93 248.00 210.00
C 249.08 212.57 248.55 215.55 250.00 218.00
C 259.22 222.76 272.36 210.17 268.75 199.25 C 265.14 188.33 241.03 199.93 248.00 209.00 Z"/>
</g>
<g fill="#BB4E55" fill-opacity="1.00" stroke="None">
<path d="
M 248.00 209.00 
C 248.00 209.00 247.84 209.56 248.00 210.00
C 248.70 210.93 249.27 211.91 250.00 213.00
C 251.23 214.45 255.55 216.75 257.00 217.00
C 260.05 217.18 271.95 204.31 264.74 199.26 C 257.54 194.21 248.33 200.02 248.00 209.00
M 259.00 201.00 
C 259.87 203.56 261.54 206.52 260.00 209.00
C 258.96 207.72 253.68 201.77 259.00 201.00 Z"/>
</g>
<g fill="#F6B5B7" fill-opacity="1.00" stroke="None">
<path d="
M 259.00 201.00 
C 253.68 201.77 258.96 207.72 260.00 209.00
C 261.54 206.52 259.87 203.56 259.00 201.00 Z"/>
</g>
<g fill="#D2969C" fill-opacity="1.00" stroke="None">
<path d="
M 257.00 217.00 
C 255.55 216.75 251.23 214.45 250.00 213.00
C 251.78 215.66 253.78 216.81 257.00 217.00 Z"/>
</g>
<g fill="#858485" fill-opacity="1.00" stroke="None">
<path d="
M 270.00 226.00 
C 273.57 219.13 265.94 220.34 270.00 226.00 Z"/>
</g>
<g fill="#909090" fill-opacity="1.00" stroke="None">
<path d="
M 278.00 226.00 
C 278.50 219.57 275.19 225.50 273.00 221.00
C 271.76 226.36 274.85 225.20 278.00 226.00 Z"/>
</g>
<g fill="#282828" fill-opacity="1.00" stroke="None">
<path d="
M 133.00 283.00 
C 135.00 283.00 137.00 283.00 139.00 283.00
C 139.48 280.03 137.31 274.05 142.00 274.00
C 151.07 276.07 160.89 269.48 156.97 260.03 C 153.05 250.57 141.64 253.41 133.00 253.00
C 133.91 257.37 131.78 263.84 133.00 268.00 C 134.22 272.16 130.66 279.61 133.00 283.00
M 146.00 259.00 
C 157.31 262.23 146.59 273.61 140.00 269.00
C 137.81 267.46 138.97 263.06 139.00 260.00 C 139.03 256.94 144.87 258.68 146.00 259.00 Z"/>
</g>
<g fill="#595959" fill-opacity="1.00" stroke="None">
<path d="
M 163.00 277.00 
C 163.17 274.84 165.14 269.74 164.00 267.00 C 162.86 264.26 167.28 260.34 169.00 263.00
C 169.12 258.12 170.44 250.61 163.00 253.00
C 163.12 261.00 162.84 269.00 163.00 277.00
M 168.00 258.00 
C 165.67 257.02 164.41 256.88 164.00 255.00
C 166.00 252.27 169.22 255.07 168.00 258.00 Z"/>
</g>
<g fill="#797979" fill-opacity="1.00" stroke="None">
<path d="
M 184.00 259.00 
C 182.01 258.76 178.69 257.11 176.00 258.00
C 176.00 256.33 176.00 254.67 176.00 253.00
C 169.10 257.69 181.91 258.96 184.00 259.00 Z"/>
</g>
<g fill="#292929" fill-opacity="1.00" stroke="None">
<path d="
M 184.00 259.00 
C 186.20 259.44 189.55 258.04 191.00 260.00
C 185.58 267.49 175.01 273.96 175.00 284.00
C 182.97 281.50 201.66 289.86 201.00 278.00
C 195.33 278.00 189.67 278.00 184.00 278.00
C 188.49 269.24 200.19 263.56 200.00 253.00
C 193.90 255.79 181.47 249.28 176.00 253.00
C 176.00 254.67 176.00 256.33 176.00 258.00
C 178.69 257.11 182.01 258.76 184.00 259.00 Z"/>
</g>
<g fill="#272727" fill-opacity="1.00" stroke="None">
<path d="
M 207.00 258.00 
C 209.20 259.47 215.51 257.93 218.00 259.00
C 219.00 259.00 220.00 259.00 221.00 259.00
C 217.28 268.06 204.78 273.17 206.00 284.00
C 213.71 281.59 231.89 289.73 231.00 278.00
C 225.67 278.00 220.33 278.00 215.00 278.00
C 218.50 268.88 230.47 263.27 231.00 253.00
C 222.67 253.00 214.33 253.00 206.00 253.00
C 205.98 254.92 205.71 256.71 207.00 258.00 Z"/>
</g>
<g fill="#282828" fill-opacity="1.00" stroke="None">
<path d="
M 255.00 253.00 
C 252.33 253.00 249.67 253.00 247.00 253.00
C 243.85 263.63 237.66 273.27 235.00 284.00
C 241.41 286.62 241.22 280.93 244.33 278.33 C 247.44 275.73 254.44 279.59 258.00 278.00
C 258.28 283.01 262.20 285.17 267.00 284.00
C 264.05 273.30 257.52 263.78 255.00 253.00
M 251.00 261.00 
C 252.57 264.60 254.63 268.03 255.00 272.00
C 252.00 272.00 249.00 272.00 246.00 272.00
C 247.91 268.47 248.33 263.88 251.00 261.00 Z"/>
</g>
<g fill="#2A2A2A" fill-opacity="1.00" stroke="None">
<path d="
M 289.00 253.00 
C 280.02 250.43 281.98 258.92 282.00 265.00 C 282.02 271.08 281.99 277.85 282.00 284.00
C 291.09 286.60 288.94 276.59 289.00 271.00
C 293.33 271.00 297.67 271.00 302.00 271.00
C 302.00 275.33 302.00 279.67 302.00 284.00
C 311.99 286.65 308.84 273.92 309.00 268.00 C 309.16 262.08 311.48 250.40 302.00 253.00
C 302.00 257.00 302.00 261.00 302.00 265.00
C 297.67 265.00 293.33 265.00 289.00 265.00
C 289.00 261.00 289.00 257.00 289.00 253.00 Z"/>
</g>
<g fill="#868686" fill-opacity="1.00" stroke="None">
<path d="
M 316.00 272.00 
C 315.43 265.72 316.43 259.29 316.00 253.00
C 312.70 255.21 315.38 269.00 316.00 272.00 Z"/>
</g>
<g fill="#262626" fill-opacity="1.00" stroke="None">
<path d="
M 316.00 272.00 
C 315.22 280.42 323.01 284.02 330.00 284.00 C 336.98 283.98 343.49 278.16 343.00 271.00 C 342.51 263.84 346.76 250.50 336.00 253.00
C 334.52 260.09 340.59 278.35 329.01 277.99 C 317.43 277.64 323.58 260.29 322.00 253.00
C 320.47 253.70 317.38 252.08 316.00 253.00
C 316.43 259.29 315.43 265.72 316.00 272.00 Z"/>
</g>
<g fill="#252525" fill-opacity="1.00" stroke="None">
<path d="
M 373.00 253.00 
C 365.03 255.50 346.34 247.14 347.00 259.00
C 350.33 259.00 353.67 259.00 357.00 259.00
C 359.41 266.71 351.27 284.89 363.00 284.00
C 363.00 275.67 363.00 267.33 363.00 259.00
C 367.56 259.31 375.08 260.01 373.00 253.00 Z"/>
</g>
<g fill="#2F2F2F" fill-opacity="1.00" stroke="None">
<path d="
M 168.00 258.00 
C 169.22 255.07 166.00 252.27 164.00 255.00
C 164.41 256.88 165.67 257.02 168.00 258.00 Z"/>
</g>
<g fill="#737373" fill-opacity="1.00" stroke="None">
<path d="
M 140.00 269.00 
C 140.00 265.67 140.00 262.33 140.00 259.00
C 142.00 259.00 144.00 259.00 146.00 259.00
C 144.87 258.68 139.03 256.94 139.00 260.00 C 138.97 263.06 137.81 267.46 140.00 269.00 Z"/>
</g>
<g fill="#838383" fill-opacity="1.00" stroke="None">
<path d="
M 218.00 259.00 
C 215.51 257.93 209.20 259.47 207.00 258.00
C 209.49 260.49 214.65 258.19 218.00 259.00 Z"/>
</g>
<g fill="#F9F9F9" fill-opacity="1.00" stroke="None">
<path d="
M 140.00 269.00 
C 146.59 273.61 157.31 262.23 146.00 259.00
C 144.00 259.00 142.00 259.00 140.00 259.00
C 140.00 262.33 140.00 265.67 140.00 269.00 Z"/>
</g>
<g fill="#EEEEEE" fill-opacity="1.00" stroke="None">
<path d="
M 251.00 261.00 
C 248.33 263.88 247.91 268.47 246.00 272.00
C 249.00 272.00 252.00 272.00 255.00 272.00
C 254.63 268.03 252.57 264.60 251.00 261.00 Z"/>
</g>
<g fill="#323232" fill-opacity="1.00" stroke="None">
<path d="
M 163.00 277.00 
C 162.04 281.75 163.50 285.67 169.00 284.00
C 169.00 277.00 169.00 270.00 169.00 263.00
C 167.28 260.34 162.86 264.26 164.00 267.00 C 165.14 269.74 163.17 274.84 163.00 277.00 Z"/>
</g>
<g fill="#7B7B7B" fill-opacity="1.00" stroke="None">
<path d="
M 133.00 283.00 
C 138.42 290.86 140.67 274.67 142.00 274.00
C 137.31 274.05 139.48 280.03 139.00 283.00
C 137.00 283.00 135.00 283.00 133.00 283.00 Z"/>
</g>
<g fill="#333333" fill-opacity="1.00" stroke="None">
<path d="
M 165.00 307.00 
C 181.03 309.92 174.12 288.75 161.00 295.00
C 159.46 300.52 162.29 321.54 165.00 307.00
M 165.00 298.00 
C 179.41 297.17 163.33 311.56 165.00 298.00 Z"/>
</g>
<g fill="#313131" fill-opacity="1.00" stroke="None">
<path d="
M 189.00 306.00 
C 199.69 300.40 185.78 291.45 178.00 295.00
C 176.46 300.52 179.29 321.54 182.00 307.00
C 187.62 305.12 186.37 314.30 192.00 313.00
C 192.25 310.14 189.05 308.68 189.00 306.00
M 182.00 304.00 
C 180.25 289.85 197.24 306.20 182.00 304.00 Z"/>
</g>
<g fill="#4F4F4F" fill-opacity="1.00" stroke="None">
<path d="
M 200.00 312.00 
C 199.19 312.39 197.85 311.69 197.00 312.00
C 197.65 306.84 195.69 300.34 198.00 296.00
C 200.86 299.60 197.12 306.47 200.00 310.00
C 198.59 305.34 203.50 294.24 196.00 295.00
C 196.00 301.00 196.00 307.00 196.00 313.00
C 197.57 312.96 199.05 313.29 200.00 312.00 Z"/>
</g>
<g fill="#2F2F2F" fill-opacity="1.00" stroke="None">
<path d="
M 216.00 295.00 
C 203.58 291.46 199.17 309.14 210.33 312.67 C 221.49 316.20 226.37 297.96 216.00 295.00
M 214.00 298.00 
C 220.97 299.30 218.30 311.26 211.00 309.00 C 203.70 306.74 207.44 296.78 214.00 298.00 Z"/>
</g>
<g fill="#2F2F2F" fill-opacity="1.00" stroke="None">
<path d="
M 236.00 306.00 
C 246.66 300.42 232.88 291.21 225.00 295.00
C 226.59 300.47 221.22 312.23 229.00 313.00
C 228.72 309.93 228.56 305.54 233.00 307.00
C 233.25 310.39 236.16 314.03 240.00 313.00
C 238.84 310.59 236.31 308.73 236.00 306.00
M 229.00 304.00 
C 227.25 289.85 244.24 306.20 229.00 304.00 Z"/>
</g>
<g fill="#343434" fill-opacity="1.00" stroke="None">
<path d="
M 247.00 295.00 
C 240.57 294.24 240.67 312.95 247.00 313.00
C 247.00 307.00 247.00 301.00 247.00 295.00 Z"/>
</g>
<g fill="#2A2A2A" fill-opacity="1.00" stroke="None">
<path d="
M 265.00 297.00 
C 263.24 293.67 251.76 293.78 250.00 297.00
C 260.92 295.84 251.69 311.76 259.00 313.00
C 259.60 306.61 256.14 296.51 265.00 297.00 Z"/>
</g>
<g fill="#2F2F2F" fill-opacity="1.00" stroke="None">
<path d="
M 274.00 302.00 
C 271.54 299.30 271.03 293.59 266.00 295.00
C 271.76 299.93 269.64 311.01 276.00 313.00
C 273.90 305.57 280.19 301.12 282.00 295.00
C 277.03 294.00 277.26 300.36 274.00 302.00 Z"/>
</g>
<g fill="#2E2E2E" fill-opacity="1.00" stroke="None">
<path d="
M 296.00 307.00 
C 312.43 310.34 305.34 288.73 292.00 295.00
C 292.00 301.00 292.00 307.00 292.00 313.00
C 296.46 314.30 296.35 310.15 296.00 307.00
M 296.00 304.00 
C 294.06 289.89 311.09 306.38 296.00 304.00 Z"/>
</g>
<g fill="#2A2A2A" fill-opacity="1.00" stroke="None">
<path d="
M 321.00 306.00 
C 330.11 299.29 317.27 291.94 310.00 295.00
C 311.17 300.54 307.57 309.88 312.00 313.00
C 313.09 301.74 318.30 311.54 324.00 313.00
C 324.33 310.08 319.86 309.20 321.00 306.00
M 313.00 304.00 
C 311.25 289.85 328.24 306.20 313.00 304.00 Z"/>
</g>
<g fill="#2F2F2F" fill-opacity="1.00" stroke="None">
<path d="
M 340.00 295.00 
C 328.31 291.15 321.87 306.99 332.78 312.22 C 343.68 317.45 349.89 298.25 340.00 295.00
M 338.00 298.00 
C 344.74 299.94 341.04 311.71 334.00 309.00 C 326.96 306.29 331.30 296.07 338.00 298.00 Z"/>
</g>
<g fill="#222222" fill-opacity="1.00" stroke="None">
<path d="
M 200.00 312.00 
C 200.24 311.67 200.00 310.50 200.00 310.00
C 197.12 306.47 200.86 299.60 198.00 296.00
C 195.69 300.34 197.65 306.84 197.00 312.00
C 197.85 311.69 199.19 312.39 200.00 312.00 Z"/>
</g>
<g fill="#EEEEEE" fill-opacity="1.00" stroke="None">
<path d="
M 165.00 298.00 
C 163.33 311.56 179.41 297.17 165.00 298.00 Z"/>
</g>
<g fill="#F1F1F1" fill-opacity="1.00" stroke="None">
<path d="
M 182.00 304.00 
C 197.24 306.20 180.25 289.85 182.00 304.00 Z"/>
</g>
<g fill="#F4F4F4" fill-opacity="1.00" stroke="None">
<path d="
M 214.00 298.00 
C 207.44 296.78 203.70 306.74 211.00 309.00 C 218.30 311.26 220.97 299.30 214.00 298.00 Z"/>
</g>
<g fill="#F1F1F1" fill-opacity="1.00" stroke="None">
<path d="
M 229.00 304.00 
C 244.24 306.20 227.25 289.85 229.00 304.00 Z"/>
</g>
<g fill="#ECECEC" fill-opacity="1.00" stroke="None">
<path d="
M 296.00 304.00 
C 311.09 306.38 294.06 289.89 296.00 304.00 Z"/>
</g>
<g fill="#EDEDED" fill-opacity="1.00" stroke="None">
<path d="
M 313.00 304.00 
C 328.24 306.20 311.25 289.85 313.00 304.00 Z"/>
</g>
<g fill="#F2F2F2" fill-opacity="1.00" stroke="None">
<path d="
M 338.00 298.00 
C 331.30 296.07 326.96 306.29 334.00 309.00 C 341.04 311.71 344.74 299.94 338.00 298.00 Z"/>
</g>
<g fill="#AD656E" fill-opacity="1.00" stroke="None">
<path d="
M 151.00 302.00 
C 144.67 302.00 138.33 302.00 132.00 302.00
C 134.03 306.89 149.83 306.87 151.00 302.00 Z"/>
</g>
<g fill="#A65F67" fill-opacity="1.00" stroke="None">
<path d="
M 373.00 303.00 
C 367.47 302.36 354.94 299.14 353.00 305.00
C 359.39 303.85 368.15 307.41 373.00 303.00 Z"/>
</g>
</svg>